<mxfile host="app.diagrams.net" modified="2023-02-23T11:50:54.931Z" agent="5.0 (Macintosh; Intel Mac OS X 10_15_7) AppleWebKit/537.36 (KHTML, like Gecko) Chrome/110.0.0.0 Safari/537.36" etag="VnPUr3GVyMkVNjzsi9wm" version="20.8.23" type="github">
  <diagram name="Page-1" id="7NhaHq6xRX-SVBh43bq5">
    <mxGraphModel dx="2120" dy="1440" grid="1" gridSize="10" guides="1" tooltips="1" connect="1" arrows="1" fold="1" page="1" pageScale="1" pageWidth="850" pageHeight="1100" math="0" shadow="0">
      <root>
        <mxCell id="0" />
        <mxCell id="1" parent="0" />
        <mxCell id="lSPtR-7JWRUMef0qkPkE-1" value="End" style="ellipse;whiteSpace=wrap;html=1;aspect=fixed;fillColor=#f8cecc;strokeColor=#b85450;fontStyle=1;strokeWidth=2;" vertex="1" parent="1">
          <mxGeometry x="115" y="950" width="70" height="70" as="geometry" />
        </mxCell>
        <mxCell id="lSPtR-7JWRUMef0qkPkE-5" value="" style="rhombus;whiteSpace=wrap;html=1;fillColor=#dae8fc;strokeColor=#6c8ebf;" vertex="1" parent="1">
          <mxGeometry x="87.5" y="385" width="125" height="120" as="geometry" />
        </mxCell>
        <mxCell id="lSPtR-7JWRUMef0qkPkE-8" value="ya" style="text;html=1;strokeColor=none;fillColor=none;align=center;verticalAlign=middle;whiteSpace=wrap;rounded=0;" vertex="1" parent="1">
          <mxGeometry x="222.5" y="410" width="60" height="30" as="geometry" />
        </mxCell>
        <mxCell id="lSPtR-7JWRUMef0qkPkE-12" value="" style="rounded=1;whiteSpace=wrap;html=1;fontSize=12;glass=0;strokeWidth=1;shadow=0;" vertex="1" parent="1">
          <mxGeometry x="77.5" y="190" width="145" height="70" as="geometry" />
        </mxCell>
        <mxCell id="lSPtR-7JWRUMef0qkPkE-17" value="tidak" style="text;html=1;strokeColor=none;fillColor=none;align=center;verticalAlign=middle;whiteSpace=wrap;rounded=0;" vertex="1" parent="1">
          <mxGeometry x="70" y="505" width="60" height="30" as="geometry" />
        </mxCell>
        <mxCell id="lSPtR-7JWRUMef0qkPkE-18" value="start" style="ellipse;whiteSpace=wrap;html=1;fillColor=#d5e8d4;strokeColor=#82b366;strokeWidth=2;" vertex="1" parent="1">
          <mxGeometry x="110" y="80" width="80" height="80" as="geometry" />
        </mxCell>
        <mxCell id="lSPtR-7JWRUMef0qkPkE-20" value="" style="shape=parallelogram;perimeter=parallelogramPerimeter;whiteSpace=wrap;html=1;fixedSize=1;strokeWidth=1;fillColor=#fff2cc;strokeColor=#d6b656;" vertex="1" parent="1">
          <mxGeometry x="57.5" y="300" width="185" height="50" as="geometry" />
        </mxCell>
      </root>
    </mxGraphModel>
  </diagram>
</mxfile>
